<svg xmlns="http://www.w3.org/2000/svg" fill="none" viewBox="379.12 179 265.75 410"><path d="M474.1 184.7C474.7 183.5 476.2 181.7 477.4 180.8C479.3 179.2 482.7 179 512 179C541.3 179 544.7 179.2 546.6 180.8C547.8 181.7 549.3 183.5 549.9 184.7C550.5 186 551 192 551 210H473V198.5C473 192 473.5 186 474.1 184.7Z" fill="#121420"></path><path d="M454 238V229.5V221H570V238H454Z" fill="#121420"></path><path d="M454 266V258V250H570V266H454Z" fill="#121420"></path><path d="M452.6 296C453.3 290.8 454 284.6 454 282.2V278H570V282.2C570 284.6 570.7 290.8 571.4 296C572.2 301.2 574.1 309.3 575.6 314C577 318.7 580 326.1 582.3 330.5C584.5 334.9 588.5 341.9 591.3 346C594.1 350.1 601.5 360 607.9 368C614.3 376 621.8 385.9 624.6 390C627.4 394.1 631.6 401.1 633.8 405.5C636 409.9 638.9 417.1 640.3 421.5C641.7 425.9 643.4 433.3 644 438C644.8 443.3 645.1 451.3 644.7 459.5C644.4 467.2 643.3 475.8 642.1 480.5C641.1 484.9 639.2 491.4 638 495C636.8 498.6 633.1 506.7 629.8 513C626.6 519.3 621.1 528.3 617.6 533C614.1 537.7 606.6 546 600.8 551.5C595.1 557 587.1 563.7 583 566.5C578.9 569.2 571.2 573.7 566 576.3C560.8 578.9 553.1 582.1 549 583.4C544.9 584.8 537.7 586.5 533 587.4C528.1 588.4 519.3 589 512 589C504.7 589 495.9 588.4 491 587.4C486.3 586.5 479.1 584.8 475 583.4C470.9 582.1 463.2 578.9 458 576.3C452.8 573.7 445.1 569.2 441 566.5C436.9 563.7 428.9 557 423.2 551.5C417.4 546 409.9 537.7 406.4 533C402.9 528.3 397.6 519.8 394.7 514C391.7 508.2 388.3 501 387.1 498C386 495 383.8 488 382.4 482.5C380.6 475.4 379.7 468.7 379.3 459.5C378.9 451.4 379.2 443.3 380 438C380.6 433.3 382.3 425.9 383.7 421.5C385.1 417.1 388 409.9 390.2 405.5C392.4 401.1 396.6 394.1 399.4 390C402.2 385.9 409.7 376 416.1 368C422.5 360 429.9 350.1 432.7 346C435.5 341.9 439.5 334.9 441.7 330.5C444 326.1 447 318.7 448.4 314C449.9 309.3 451.8 301.2 452.6 296Z" fill="#121420"></path><path d="M475 514C473 507.7 473 504.8 473 401.3V295H551V401.2C551 504.8 551 507.7 549 514C547.9 517.6 545.3 522.7 543.3 525.4C541.2 528.2 537.5 531.8 535 533.6C532.5 535.4 527.9 537.8 524.8 539C521 540.3 516.5 541 512 541C507.5 541 503 540.3 499.3 539C496.1 537.8 491.5 535.4 489 533.6C486.5 531.8 482.8 528.2 480.7 525.4C478.7 522.7 476.1 517.6 475 514Z" fill="#FCFCFC"></path><path d="M486.1 447.1C485.7 393.6 485.8 384.5 487.1 383.8C487.9 383.4 499.1 383 512 383C524.9 383 536.1 383.4 536.7 383.8C537.7 384.3 537.9 397.9 537.7 447C537.5 503.6 537.3 509.8 535.8 513C534.8 514.9 532.5 518.2 530.5 520.2C528.6 522.3 525.5 524.8 523.7 525.7C521.4 527 518.2 527.5 512 527.5C505.8 527.5 502.6 527 500.2 525.7C498.5 524.8 495.4 522.3 493.5 520.2C491.5 518.2 489.2 514.9 488.2 513C486.7 509.8 486.5 503.4 486.1 447.1Z" fill="#B76D68"></path></svg>